<svg xmlns="http://www.w3.org/2000/svg" width="220" height="20.118" viewBox="0 0 220 20.118">
  <path id="img_logo" d="M15.23-3.174v-.054a.787.787,0,0,0,.04-.2q.013-.135.013-.242a4.2,4.2,0,0,0-.114-.922,7.611,7.611,0,0,0-.437-1.258L13.1-9.512q-.754-.027-2.005-.027H6.342q-.989,0-1.783.027L3.011-5.96q-.2.5-.431,1.09a3.3,3.3,0,0,0-.229,1.2,1.294,1.294,0,0,0,.027.289.53.53,0,0,0,.054.155v.054H-.312v-.054a4.84,4.84,0,0,0,.606-.908q.363-.653.794-1.635L8.8-22.875H9.874L17.181-6.431q.256.579.532,1.124t.518.976q.242.431.431.727t.256.377v.054ZM6.51-10.7q.78,0,1.6-.007l1.608-.013,1.514-.013q.727-.007,1.319-.02L8.771-19.3,5.057-10.7ZM25.737-7.884a3.99,3.99,0,0,0,.706,2.611,2.367,2.367,0,0,0,1.9.834,3.066,3.066,0,0,0,.969-.182,7.524,7.524,0,0,0,1.11-.484,10.531,10.531,0,0,0,1.144-.706,9.587,9.587,0,0,0,1.056-.861q.027-.39.027-.828v-4.192q0-1.144-.034-2t-.081-1.474q-.047-.619-.121-1.036a7.154,7.154,0,0,0-.155-.7v-.054h3.109v.054a6.191,6.191,0,0,0-.148.7q-.067.417-.121,1.036t-.081,1.474q-.027.855-.027,2v3.257q0,1.144.027,2T35.1-4.964q.054.619.121,1.036a6.191,6.191,0,0,0,.148.7v.054H32.264v-.054q.081-.336.168-.861a12.211,12.211,0,0,0,.128-1.373q-.552.471-1.191.929a11.3,11.3,0,0,1-1.332.821,8.5,8.5,0,0,1-1.4.585,4.628,4.628,0,0,1-1.393.222,3.986,3.986,0,0,1-1.783-.363,3.427,3.427,0,0,1-1.2-.955,3.8,3.8,0,0,1-.673-1.346,5.774,5.774,0,0,1-.209-1.548v-4.575q0-1.144-.027-2t-.081-1.474q-.054-.619-.121-1.036a6.191,6.191,0,0,0-.148-.7v-.054h3.109v.054a6.191,6.191,0,0,0-.148.7q-.067.417-.121,1.036t-.081,1.474q-.027.855-.027,2Zm16.145-3.808q0-1.144-.034-2t-.081-1.474q-.047-.619-.121-1.036a7.154,7.154,0,0,0-.155-.7v-.054H44.6v.054a4.656,4.656,0,0,0-.182.754A11.089,11.089,0,0,0,44.3-15q.5-.417,1.036-.821a9.221,9.221,0,0,1,1.1-.713,6.608,6.608,0,0,1,1.151-.5,3.823,3.823,0,0,1,1.177-.188,5.174,5.174,0,0,1,.632.034,3.316,3.316,0,0,1,.484.094,3.29,3.29,0,0,1,.39.135l.336.141-.659,2.57-.229-.054a1.781,1.781,0,0,0-.606-.949,1.882,1.882,0,0,0-1.211-.357,2.84,2.84,0,0,0-.875.148,5.2,5.2,0,0,0-.929.41,9.237,9.237,0,0,0-.942.606q-.471.343-.915.72-.027.39-.027.848v4.441q0,1.144.027,2t.081,1.474q.054.619.121,1.036a6.191,6.191,0,0,0,.148.7v.054H41.492v-.054a7.154,7.154,0,0,0,.155-.7q.074-.417.121-1.036t.081-1.474q.034-.855.034-2Zm12.431,1.6a6.987,6.987,0,0,1,.565-2.819,6.961,6.961,0,0,1,1.554-2.254,7.133,7.133,0,0,1,2.335-1.494,7.718,7.718,0,0,1,2.893-.538,8.041,8.041,0,0,1,2.86.5,7.006,7.006,0,0,1,2.335,1.433A6.614,6.614,0,0,1,68.424-13,7.5,7.5,0,0,1,69-10.01a7.457,7.457,0,0,1-.484,2.664,6.625,6.625,0,0,1-1.426,2.261,6.937,6.937,0,0,1-2.308,1.568,7.916,7.916,0,0,1-3.142.585,8.044,8.044,0,0,1-2.839-.5,6.932,6.932,0,0,1-2.328-1.426A6.709,6.709,0,0,1,54.893-7.11,7.377,7.377,0,0,1,54.314-10.091Zm7.63,6.177A4.072,4.072,0,0,0,63.7-4.291a3.9,3.9,0,0,0,1.379-1.09,5.215,5.215,0,0,0,.9-1.736A7.676,7.676,0,0,0,66.3-9.432a11.162,11.162,0,0,0-.31-2.7,6.718,6.718,0,0,0-.922-2.153,4.4,4.4,0,0,0-1.541-1.42,4.42,4.42,0,0,0-2.167-.511,4.09,4.09,0,0,0-1.749.37,3.971,3.971,0,0,0-1.379,1.07,5,5,0,0,0-.908,1.716,7.609,7.609,0,0,0-.323,2.308,11.018,11.018,0,0,0,.316,2.7,6.894,6.894,0,0,0,.935,2.173A4.494,4.494,0,0,0,59.8-4.432,4.307,4.307,0,0,0,61.944-3.914Zm12.822-7.778q0-1.144-.034-2t-.081-1.474q-.047-.619-.121-1.036a7.157,7.157,0,0,0-.155-.7v-.054h3.109v.054a4.656,4.656,0,0,0-.182.754A11.088,11.088,0,0,0,77.188-15q.5-.417,1.036-.821a9.222,9.222,0,0,1,1.1-.713,6.609,6.609,0,0,1,1.151-.5,3.823,3.823,0,0,1,1.177-.188,5.174,5.174,0,0,1,.632.034,3.315,3.315,0,0,1,.484.094,3.29,3.29,0,0,1,.39.135l.336.141-.659,2.57-.229-.054a1.781,1.781,0,0,0-.606-.949,1.882,1.882,0,0,0-1.211-.357,2.84,2.84,0,0,0-.875.148,5.2,5.2,0,0,0-.929.41,9.237,9.237,0,0,0-.942.606q-.471.343-.915.72-.027.39-.027.848v4.441q0,1.144.027,2t.081,1.474q.054.619.121,1.036a6.189,6.189,0,0,0,.148.7v.054H74.376v-.054a7.157,7.157,0,0,0,.155-.7q.074-.417.121-1.036t.081-1.474q.034-.855.034-2ZM86.7-7.144a3.712,3.712,0,0,1,.437-1.844A4.294,4.294,0,0,1,88.3-10.32a6.366,6.366,0,0,1,1.655-.895,12.445,12.445,0,0,1,1.924-.538,16.914,16.914,0,0,1,1.965-.269q.969-.074,1.776-.087V-12.8a4.6,4.6,0,0,0-.229-1.534,2.86,2.86,0,0,0-.646-1.07,2.618,2.618,0,0,0-1-.632,3.8,3.8,0,0,0-1.285-.209,5.644,5.644,0,0,0-.955.081,5.407,5.407,0,0,0-.976.269,7.1,7.1,0,0,0-1.063.511,11.121,11.121,0,0,0-1.2.821l-.135-.081.915-1.9a6.777,6.777,0,0,1,.875-.33,8.268,8.268,0,0,1,.875-.209,8.515,8.515,0,0,1,.908-.114q.464-.034.976-.034a7.5,7.5,0,0,1,2.415.343,4.489,4.489,0,0,1,1.642.942,3.614,3.614,0,0,1,.935,1.4,4.908,4.908,0,0,1,.3,1.716v4.387q0,1.144.034,2t.081,1.474q.047.619.121,1.036a7.157,7.157,0,0,0,.155.7v.054H95.379v-.054a2.786,2.786,0,0,0,.1-.484q.034-.269.061-.646a6.951,6.951,0,0,1-.666.5A5.33,5.33,0,0,1,94-3.4a5.981,5.981,0,0,1-1.09.336,6.289,6.289,0,0,1-1.312.128,5.4,5.4,0,0,1-3.62-1.1A3.881,3.881,0,0,1,86.7-7.144Zm8.922-3.916a23.232,23.232,0,0,0-2.355.141,6.429,6.429,0,0,0-2,.532,3.388,3.388,0,0,0-1.386,1.151,3.42,3.42,0,0,0-.518,1.985,3.382,3.382,0,0,0,.794,2.422A2.883,2.883,0,0,0,92.351-4a3.623,3.623,0,0,0,1.177-.182,4,4,0,0,0,.942-.458,3.409,3.409,0,0,0,.693-.606,2.961,2.961,0,0,0,.431-.639q.027-.511.027-1.137V-11.06Zm35.642-8.451-.121.054A7.967,7.967,0,0,0,128.619-21a8.78,8.78,0,0,0-3.236-.579,8.764,8.764,0,0,0-3.109.532,6.791,6.791,0,0,0-2.429,1.541,6.966,6.966,0,0,0-1.581,2.476A9.23,9.23,0,0,0,117.7-13.7a13.233,13.233,0,0,0,.538,3.842,8.9,8.9,0,0,0,1.6,3.088A7.446,7.446,0,0,0,122.5-4.715a8.689,8.689,0,0,0,3.721.747,7.428,7.428,0,0,0,1.534-.161,7.253,7.253,0,0,0,1.474-.478,7.55,7.55,0,0,0,1.332-.767A6.879,6.879,0,0,0,131.693-6.4l.148.094-1.077,2.745a11.6,11.6,0,0,1-2.227.6,14.521,14.521,0,0,1-2.456.209,13.763,13.763,0,0,1-4.555-.72,10.484,10.484,0,0,1-3.553-2.039,9.207,9.207,0,0,1-2.315-3.169,9.958,9.958,0,0,1-.828-4.111,9.738,9.738,0,0,1,.33-2.516,9.963,9.963,0,0,1,.962-2.355,9.66,9.66,0,0,1,1.561-2.052,10.013,10.013,0,0,1,2.119-1.622,10.842,10.842,0,0,1,2.624-1.07,11.967,11.967,0,0,1,3.1-.384,14.209,14.209,0,0,1,4.818.794Zm14.6-3.283a11.455,11.455,0,0,1,4.151.733A9.792,9.792,0,0,1,153.3-20a9.366,9.366,0,0,1,2.167,3.183,10.491,10.491,0,0,1,.78,4.1,10.781,10.781,0,0,1-.3,2.516,10.246,10.246,0,0,1-.868,2.341,9.884,9.884,0,0,1-1.406,2.039,9.017,9.017,0,0,1-1.9,1.615,9.331,9.331,0,0,1-2.362,1.063,9.746,9.746,0,0,1-2.786.384,11.646,11.646,0,0,1-4.151-.72,9.675,9.675,0,0,1-3.29-2.039,9.31,9.31,0,0,1-2.167-3.169,10.477,10.477,0,0,1-.78-4.111,10.784,10.784,0,0,1,.3-2.516,10.51,10.51,0,0,1,.868-2.355,9.876,9.876,0,0,1,1.4-2.052,9.029,9.029,0,0,1,1.9-1.622,9.168,9.168,0,0,1,2.368-1.07A9.816,9.816,0,0,1,145.861-22.794Zm.767,18.826a6.779,6.779,0,0,0,2.732-.538,5.959,5.959,0,0,0,2.133-1.561,7.276,7.276,0,0,0,1.393-2.5,10.419,10.419,0,0,0,.5-3.344,14.7,14.7,0,0,0-.478-3.842,9.3,9.3,0,0,0-1.42-3.068,6.686,6.686,0,0,0-2.348-2.032,6.989,6.989,0,0,0-3.277-.733,6.853,6.853,0,0,0-2.732.532A5.959,5.959,0,0,0,141-19.511a7.139,7.139,0,0,0-1.393,2.476,10.358,10.358,0,0,0-.5,3.337,15,15,0,0,0,.471,3.842,9.264,9.264,0,0,0,1.413,3.088,6.77,6.77,0,0,0,2.355,2.052A6.925,6.925,0,0,0,146.628-3.968Zm18.245-4.468q0,1.144.034,2t.081,1.474q.047.619.121,1.036a7.153,7.153,0,0,0,.155.7v.054h-3.23v-.054a7.157,7.157,0,0,0,.155-.7q.074-.417.128-1.036t.081-1.474q.027-.855.027-2V-17.2q0-1.144-.027-2t-.081-1.48q-.054-.626-.128-1.043a7.157,7.157,0,0,0-.155-.7v-.054q1.117,0,2.261-.007l2.22-.013q1.077-.007,2.045-.027t1.749-.04q.781-.02,1.319-.054t.767-.074l-.659,1.79a9.881,9.881,0,0,0-1.036-.215q-.511-.081-1.245-.155t-1.689-.074q-.323,0-.807.02t-.955.047l-1.13.054v6.8q1.386-.013,2.543-.081t1.992-.135q.969-.081,1.749-.188l-.4,1.951q-1.009-.121-2.045-.229-.888-.094-1.911-.168t-1.924-.074Zm15.594,0q0,1.144.034,2t.081,1.474q.047.619.121,1.036a7.153,7.153,0,0,0,.155.7v.054h-3.23v-.054a7.158,7.158,0,0,0,.155-.7q.074-.417.128-1.036t.081-1.474q.027-.855.027-2V-17.2q0-1.144-.027-2t-.081-1.48q-.054-.626-.128-1.043a7.158,7.158,0,0,0-.155-.7v-.054q1.117,0,2.261-.007l2.22-.013q1.077-.007,2.045-.027t1.749-.04q.78-.02,1.319-.054t.767-.074l-.659,1.79a9.882,9.882,0,0,0-1.036-.215q-.511-.081-1.245-.155t-1.689-.074q-.323,0-.807.02t-.955.047l-1.13.054v6.8q1.386-.013,2.543-.081T185-14.639q.969-.081,1.749-.188l-.4,1.951q-1.009-.121-2.045-.229-.888-.094-1.911-.168t-1.924-.074Zm12.754-14.035q1.682,0,3.344-.013t3.048-.034q1.386-.02,2.368-.061a10.862,10.862,0,0,0,1.332-.108l-.659,1.79a9.881,9.881,0,0,0-1.036-.215q-.511-.081-1.245-.155t-1.689-.074q-.323,0-.774.02t-.868.047l-.982.054v7.347q1.386-.013,2.5-.081t1.9-.135q.915-.081,1.615-.188l-.417,1.951q-.928-.121-1.9-.229-.834-.094-1.817-.168T196.06-12.8v8.437a29.191,29.191,0,0,0,2.92-.135q1.332-.135,2.328-.31,1.157-.188,2.113-.444l-.39,2.18q-.161-.013-.484-.027l-.72-.027q-.4-.013-.834-.02l-.828-.013-.693-.013q-.3-.007-.437-.007h-5.813v-.054a7.153,7.153,0,0,0,.155-.7q.074-.417.128-1.036t.081-1.474q.027-.855.027-2V-17.2q0-1.144-.027-2t-.081-1.48q-.054-.626-.128-1.043a7.153,7.153,0,0,0-.155-.7Zm16.267,0q1.682,0,3.344-.013t3.048-.034q1.386-.02,2.368-.061a10.862,10.862,0,0,0,1.332-.108l-.659,1.79a9.88,9.88,0,0,0-1.036-.215q-.511-.081-1.245-.155t-1.689-.074q-.323,0-.774.02t-.868.047l-.982.054v7.347q1.386-.013,2.5-.081t1.9-.135q.915-.081,1.615-.188l-.417,1.951q-.929-.121-1.9-.229-.834-.094-1.817-.168t-1.884-.074v8.437a29.191,29.191,0,0,0,2.92-.135q1.332-.135,2.328-.31,1.157-.188,2.113-.444l-.39,2.18q-.161-.013-.484-.027l-.72-.027q-.4-.013-.834-.02l-.828-.013-.693-.013q-.3-.007-.437-.007h-5.813v-.054a7.153,7.153,0,0,0,.155-.7q.074-.417.128-1.036t.081-1.474q.027-.855.027-2V-17.2q0-1.144-.027-2t-.081-1.48q-.054-.626-.128-1.043a7.153,7.153,0,0,0-.155-.7Z" transform="translate(0.313 22.875)" fill="#262626"/>
</svg>
