<svg xmlns="http://www.w3.org/2000/svg" width="300" height="27.434" viewBox="0 0 300 27.434"><path d="M20.882,3.99V3.916a1.074,1.074,0,0,0,.055-.275q.018-.184.018-.33A5.726,5.726,0,0,0,20.8,2.054,10.378,10.378,0,0,0,20.2.338l-2.22-4.991q-1.028-.037-2.734-.037H8.762q-1.349,0-2.431.037L4.22.191Q3.945.87,3.633,1.678a4.5,4.5,0,0,0-.312,1.633,1.764,1.764,0,0,0,.037.395.723.723,0,0,0,.073.211V3.99H-.312V3.916A6.6,6.6,0,0,0,.513,2.678q.5-.89,1.083-2.23L12.111-22.875h1.468L23.543-.451q.349.789.725,1.532t.706,1.33q.33.587.587.991t.349.514V3.99ZM8.991-6.268q1.064,0,2.184-.009L13.368-6.3l2.064-.018q.991-.009,1.8-.028L12.074-17.994,7.009-6.268ZM35.21-2.433a5.441,5.441,0,0,0,.963,3.56,3.227,3.227,0,0,0,2.6,1.138,4.181,4.181,0,0,0,1.321-.248A10.26,10.26,0,0,0,41.6,1.356a14.361,14.361,0,0,0,1.56-.963,13.073,13.073,0,0,0,1.44-1.174q.037-.532.037-1.129V-7.626q0-1.56-.046-2.725t-.11-2.009q-.064-.844-.165-1.413a9.756,9.756,0,0,0-.211-.954V-14.8h4.239v.073a8.442,8.442,0,0,0-.2.954q-.092.569-.165,1.413t-.11,2.009q-.037,1.165-.037,2.725v4.441q0,1.56.037,2.725t.11,2.009q.073.844.165,1.413a8.442,8.442,0,0,0,.2.954V3.99H44.11V3.916q.11-.459.229-1.174A16.651,16.651,0,0,0,44.513.87q-.752.642-1.624,1.266a15.416,15.416,0,0,1-1.817,1.119,11.6,11.6,0,0,1-1.908.8,6.311,6.311,0,0,1-1.9.3,5.435,5.435,0,0,1-2.431-.5,4.673,4.673,0,0,1-1.633-1.3A5.18,5.18,0,0,1,32.283.723,7.874,7.874,0,0,1,32-1.387V-7.626q0-1.56-.037-2.725t-.11-2.009q-.073-.844-.165-1.413a8.442,8.442,0,0,0-.2-.954V-14.8h4.239v.073a8.443,8.443,0,0,0-.2.954q-.092.569-.165,1.413t-.11,2.009q-.037,1.165-.037,2.725ZM57.226-7.626q0-1.56-.046-2.725t-.11-2.009q-.064-.844-.165-1.413a9.756,9.756,0,0,0-.211-.954V-14.8h4.239v.073a6.349,6.349,0,0,0-.248,1.028,15.121,15.121,0,0,0-.156,1.56q.679-.569,1.413-1.119a12.573,12.573,0,0,1,1.5-.973,9.012,9.012,0,0,1,1.569-.679,5.213,5.213,0,0,1,1.606-.257,7.056,7.056,0,0,1,.862.046,4.522,4.522,0,0,1,.661.128,4.487,4.487,0,0,1,.532.184l.459.193-.9,3.5-.312-.073A2.428,2.428,0,0,0,67.1-12.48a2.566,2.566,0,0,0-1.652-.486,3.873,3.873,0,0,0-1.193.2,7.1,7.1,0,0,0-1.266.56,12.6,12.6,0,0,0-1.285.826q-.642.468-1.248.982-.037.532-.037,1.156v6.056q0,1.56.037,2.725t.11,2.009q.073.844.165,1.413a8.442,8.442,0,0,0,.2.954V3.99H56.694V3.916a9.756,9.756,0,0,0,.211-.954q.1-.569.165-1.413T57.18-.46q.046-1.165.046-2.725ZM74.178-5.442a9.528,9.528,0,0,1,.771-3.844,9.492,9.492,0,0,1,2.119-3.074A9.727,9.727,0,0,1,80.252-14.4a10.524,10.524,0,0,1,3.945-.734,10.965,10.965,0,0,1,3.9.688,9.553,9.553,0,0,1,3.184,1.954,9.019,9.019,0,0,1,2.138,3.083,10.229,10.229,0,0,1,.78,4.074A10.168,10.168,0,0,1,93.538-1.7a9.034,9.034,0,0,1-1.945,3.083,9.459,9.459,0,0,1-3.147,2.138,10.794,10.794,0,0,1-4.285.8,10.969,10.969,0,0,1-3.872-.679A9.453,9.453,0,0,1,77.114,1.7a9.148,9.148,0,0,1-2.147-3.074A10.059,10.059,0,0,1,74.178-5.442Zm10.4,8.423a5.553,5.553,0,0,0,2.395-.514A5.315,5.315,0,0,0,88.858.98a7.111,7.111,0,0,0,1.229-2.367,10.467,10.467,0,0,0,.44-3.156,15.221,15.221,0,0,0-.422-3.679,9.161,9.161,0,0,0-1.257-2.936,6,6,0,0,0-2.1-1.936,6.027,6.027,0,0,0-2.954-.7,5.577,5.577,0,0,0-2.386.5,5.415,5.415,0,0,0-1.881,1.459,6.818,6.818,0,0,0-1.239,2.34,10.376,10.376,0,0,0-.44,3.147,15.025,15.025,0,0,0,.431,3.688A9.4,9.4,0,0,0,79.555.31a6.129,6.129,0,0,0,2.1,1.963A5.874,5.874,0,0,0,84.583,2.98ZM102.067-7.626q0-1.56-.046-2.725t-.11-2.009q-.064-.844-.165-1.413a9.756,9.756,0,0,0-.211-.954V-14.8h4.239v.073a6.348,6.348,0,0,0-.248,1.028,15.12,15.12,0,0,0-.156,1.56q.679-.569,1.413-1.119a12.573,12.573,0,0,1,1.5-.973,9.012,9.012,0,0,1,1.569-.679,5.213,5.213,0,0,1,1.606-.257,7.056,7.056,0,0,1,.862.046,4.521,4.521,0,0,1,.661.128,4.486,4.486,0,0,1,.532.184l.459.193-.9,3.5-.312-.073a2.428,2.428,0,0,0-.826-1.294,2.566,2.566,0,0,0-1.652-.486,3.873,3.873,0,0,0-1.193.2,7.1,7.1,0,0,0-1.266.56,12.6,12.6,0,0,0-1.285.826q-.642.468-1.248.982-.037.532-.037,1.156v6.056q0,1.56.037,2.725t.11,2.009q.073.844.165,1.413a8.441,8.441,0,0,0,.2.954V3.99h-4.239V3.916a9.756,9.756,0,0,0,.211-.954q.1-.569.165-1.413t.11-2.009q.046-1.165.046-2.725Zm16.273,6.2a5.061,5.061,0,0,1,.6-2.514,5.855,5.855,0,0,1,1.587-1.817,8.681,8.681,0,0,1,2.257-1.22,16.97,16.97,0,0,1,2.624-.734,23.064,23.064,0,0,1,2.679-.367q1.321-.1,2.422-.119v-.936a6.278,6.278,0,0,0-.312-2.092,3.9,3.9,0,0,0-.881-1.459,3.57,3.57,0,0,0-1.367-.862,5.188,5.188,0,0,0-1.752-.284,7.7,7.7,0,0,0-1.3.11,7.374,7.374,0,0,0-1.33.367,9.685,9.685,0,0,0-1.45.7,15.164,15.164,0,0,0-1.642,1.119l-.184-.11,1.248-2.587a9.242,9.242,0,0,1,1.193-.45,11.275,11.275,0,0,1,1.193-.284,11.612,11.612,0,0,1,1.239-.156q.633-.046,1.33-.046a10.224,10.224,0,0,1,3.294.468,6.121,6.121,0,0,1,2.239,1.285,4.928,4.928,0,0,1,1.275,1.908,6.693,6.693,0,0,1,.4,2.34v5.982q0,1.56.046,2.725t.11,2.009q.064.844.165,1.413a9.758,9.758,0,0,0,.211.954V3.99h-4.055V3.916a3.8,3.8,0,0,0,.138-.661q.046-.367.083-.881a9.479,9.479,0,0,1-.908.679,7.268,7.268,0,0,1-1.193.633,8.156,8.156,0,0,1-1.486.459,8.576,8.576,0,0,1-1.789.174,7.357,7.357,0,0,1-4.936-1.5A5.292,5.292,0,0,1,118.34-1.424Zm12.166-5.34a31.681,31.681,0,0,0-3.211.193,8.768,8.768,0,0,0-2.725.725,4.621,4.621,0,0,0-1.89,1.569,4.664,4.664,0,0,0-.706,2.707,4.612,4.612,0,0,0,1.083,3.3,3.932,3.932,0,0,0,2.991,1.138,4.941,4.941,0,0,0,1.606-.248A5.45,5.45,0,0,0,128.937,2a4.648,4.648,0,0,0,.945-.826A4.039,4.039,0,0,0,130.469.3q.037-.7.037-1.551V-6.764Zm48.6-11.524-.165.073a10.864,10.864,0,0,0-3.441-2.11,11.973,11.973,0,0,0-4.413-.789,11.951,11.951,0,0,0-4.239.725,9.261,9.261,0,0,0-3.312,2.1,9.5,9.5,0,0,0-2.156,3.376,12.587,12.587,0,0,0-.771,4.551,18.046,18.046,0,0,0,.734,5.239A12.141,12.141,0,0,0,163.529-.91a10.154,10.154,0,0,0,3.624,2.8,11.849,11.849,0,0,0,5.074,1.018,10.129,10.129,0,0,0,2.092-.22,9.89,9.89,0,0,0,2.009-.651A10.3,10.3,0,0,0,178.145.989a9.38,9.38,0,0,0,1.551-1.4l.2.128-1.468,3.743a15.816,15.816,0,0,1-3.037.817,19.8,19.8,0,0,1-3.349.284,18.768,18.768,0,0,1-6.212-.982A14.3,14.3,0,0,1,160.988.8a12.555,12.555,0,0,1-3.156-4.321A13.579,13.579,0,0,1,156.7-9.131a13.279,13.279,0,0,1,.45-3.431,13.587,13.587,0,0,1,1.312-3.211,13.173,13.173,0,0,1,2.129-2.8,13.654,13.654,0,0,1,2.89-2.211,14.783,14.783,0,0,1,3.578-1.459,16.319,16.319,0,0,1,4.23-.523,19.375,19.375,0,0,1,6.569,1.083Zm19.906-4.477a15.621,15.621,0,0,1,5.661,1,13.352,13.352,0,0,1,4.487,2.808,12.772,12.772,0,0,1,2.954,4.34,14.306,14.306,0,0,1,1.064,5.6,14.7,14.7,0,0,1-.4,3.431A13.973,13.973,0,0,1,211.594-2.4a13.478,13.478,0,0,1-1.918,2.78,12.3,12.3,0,0,1-2.6,2.2,12.724,12.724,0,0,1-3.22,1.45,13.29,13.29,0,0,1-3.8.523,15.882,15.882,0,0,1-5.661-.982A13.194,13.194,0,0,1,189.913.8a12.7,12.7,0,0,1-2.954-4.321,14.287,14.287,0,0,1-1.064-5.606,14.7,14.7,0,0,1,.4-3.431,14.333,14.333,0,0,1,1.184-3.211,13.468,13.468,0,0,1,1.908-2.8,12.313,12.313,0,0,1,2.587-2.211,12.5,12.5,0,0,1,3.23-1.459A13.385,13.385,0,0,1,199.015-22.765Zm1.046,25.672a9.244,9.244,0,0,0,3.725-.734A8.125,8.125,0,0,0,206.694.044a9.923,9.923,0,0,0,1.9-3.4,14.209,14.209,0,0,0,.679-4.56,20.05,20.05,0,0,0-.651-5.239,12.678,12.678,0,0,0-1.936-4.184,9.117,9.117,0,0,0-3.2-2.771,9.53,9.53,0,0,0-4.468-1,9.345,9.345,0,0,0-3.725.725,8.126,8.126,0,0,0-2.909,2.1,9.734,9.734,0,0,0-1.9,3.376,14.124,14.124,0,0,0-.679,4.551,20.457,20.457,0,0,0,.642,5.239A12.633,12.633,0,0,0,192.372-.91a9.232,9.232,0,0,0,3.211,2.8A9.443,9.443,0,0,0,200.061,2.907ZM224.94-3.185q0,1.56.046,2.725t.11,2.009q.064.844.165,1.413a9.754,9.754,0,0,0,.211.954V3.99h-4.4V3.916a9.758,9.758,0,0,0,.211-.954q.1-.569.174-1.413t.11-2.009q.037-1.165.037-2.725V-15.131q0-1.56-.037-2.725t-.11-2.019q-.073-.853-.174-1.422a9.758,9.758,0,0,0-.211-.954v-.073q1.523,0,3.083-.009l3.028-.018q1.468-.009,2.789-.037t2.386-.055q1.064-.028,1.8-.073t1.046-.1l-.9,2.441a13.474,13.474,0,0,0-1.413-.294q-.7-.11-1.7-.211t-2.3-.1q-.44,0-1.1.028t-1.3.064q-.734.037-1.541.073v9.267q1.89-.018,3.468-.11t2.716-.184q1.321-.11,2.386-.257l-.551,2.661q-1.376-.165-2.789-.312-1.211-.128-2.606-.229t-2.624-.1Zm21.264,0q0,1.56.046,2.725t.11,2.009q.064.844.165,1.413a9.754,9.754,0,0,0,.211.954V3.99h-4.4V3.916a9.759,9.759,0,0,0,.211-.954q.1-.569.174-1.413t.11-2.009q.037-1.165.037-2.725V-15.131q0-1.56-.037-2.725t-.11-2.019q-.073-.853-.174-1.422a9.759,9.759,0,0,0-.211-.954v-.073q1.523,0,3.083-.009l3.028-.018q1.468-.009,2.789-.037t2.386-.055q1.064-.028,1.8-.073t1.046-.1l-.9,2.441a13.476,13.476,0,0,0-1.413-.294q-.7-.11-1.7-.211t-2.3-.1q-.44,0-1.1.028t-1.3.064q-.734.037-1.541.073v9.267q1.89-.018,3.468-.11t2.716-.184q1.321-.11,2.386-.257l-.551,2.661q-1.376-.165-2.789-.312-1.211-.128-2.606-.229t-2.624-.1ZM263.6-22.324q2.294,0,4.56-.018t4.156-.046q1.89-.028,3.23-.083a14.811,14.811,0,0,0,1.817-.147l-.9,2.441a13.475,13.475,0,0,0-1.413-.294q-.7-.11-1.7-.211t-2.3-.1q-.44,0-1.055.028t-1.184.064l-1.34.073V-10.6q1.89-.018,3.413-.11t2.587-.184q1.248-.11,2.2-.257L275.1-8.488q-1.266-.165-2.587-.312-1.138-.128-2.477-.229t-2.569-.1V2.375a39.806,39.806,0,0,0,3.982-.184q1.817-.184,3.175-.422,1.578-.257,2.881-.606l-.532,2.973q-.22-.018-.661-.037t-.982-.037q-.541-.018-1.138-.028l-1.129-.018L272.12,4q-.413-.009-.6-.009H263.6V3.916a9.758,9.758,0,0,0,.211-.954q.1-.569.174-1.413t.11-2.009q.037-1.165.037-2.725V-15.131q0-1.56-.037-2.725t-.11-2.019q-.073-.853-.174-1.422a9.758,9.758,0,0,0-.211-.954Zm22.182,0q2.294,0,4.56-.018t4.156-.046q1.89-.028,3.23-.083a14.812,14.812,0,0,0,1.817-.147l-.9,2.441a13.475,13.475,0,0,0-1.413-.294q-.7-.11-1.7-.211t-2.3-.1q-.44,0-1.055.028t-1.184.064l-1.34.073V-10.6q1.89-.018,3.413-.11t2.587-.184q1.248-.11,2.2-.257l-.569,2.661q-1.266-.165-2.587-.312-1.138-.128-2.477-.229t-2.569-.1V2.375a39.806,39.806,0,0,0,3.982-.184q1.817-.184,3.175-.422,1.578-.257,2.881-.606l-.532,2.973q-.22-.018-.661-.037t-.982-.037q-.541-.018-1.138-.028l-1.129-.018L294.3,4q-.413-.009-.6-.009h-7.927V3.916a9.758,9.758,0,0,0,.211-.954q.1-.569.174-1.413t.11-2.009q.037-1.165.037-2.725V-15.131q0-1.56-.037-2.725t-.11-2.019q-.073-.853-.174-1.422a9.758,9.758,0,0,0-.211-.954Z" transform="translate(0.313 22.875)" fill="#262626"/></svg>