<svg xmlns="http://www.w3.org/2000/svg" width="219.754" height="20.095" viewBox="0 0 219.754 20.095">
  <path id="img_logo" d="M15.213-3.2V-3.25a.786.786,0,0,0,.04-.2q.013-.134.013-.242a4.2,4.2,0,0,0-.114-.921,7.6,7.6,0,0,0-.437-1.257L13.089-9.527q-.753-.027-2-.027H6.334q-.988,0-1.781.027L3.008-5.979q-.2.5-.43,1.089a3.3,3.3,0,0,0-.229,1.2,1.292,1.292,0,0,0,.027.289.53.53,0,0,0,.054.155V-3.2H-.312V-3.25a4.835,4.835,0,0,0,.6-.907q.363-.652.793-1.633l7.7-17.084H9.863l7.3,16.426q.255.578.531,1.122t.518.975q.242.43.43.726t.255.376V-3.2ZM6.5-10.71q.78,0,1.6-.007l1.606-.013,1.512-.013q.726-.007,1.317-.02L8.761-19.3,5.051-10.71ZM25.708-7.9a3.986,3.986,0,0,0,.706,2.608,2.364,2.364,0,0,0,1.9.833,3.063,3.063,0,0,0,.968-.181,7.516,7.516,0,0,0,1.109-.484,10.52,10.52,0,0,0,1.143-.706,9.576,9.576,0,0,0,1.055-.86q.027-.39.027-.827V-11.7q0-1.143-.034-2T32.5-15.173q-.047-.618-.121-1.035a7.145,7.145,0,0,0-.155-.7v-.054h3.105v.054a6.184,6.184,0,0,0-.148.7q-.067.417-.121,1.035T34.983-13.7q-.027.854-.027,2v3.253q0,1.143.027,2t.081,1.472q.054.618.121,1.035a6.184,6.184,0,0,0,.148.7V-3.2H32.227V-3.25q.081-.336.168-.86a12.2,12.2,0,0,0,.128-1.371q-.551.47-1.19.927A11.292,11.292,0,0,1,30-3.734a8.495,8.495,0,0,1-1.4.585,4.623,4.623,0,0,1-1.391.222,3.981,3.981,0,0,1-1.781-.363,3.423,3.423,0,0,1-1.2-.954,3.794,3.794,0,0,1-.672-1.344,5.768,5.768,0,0,1-.208-1.546V-11.7q0-1.143-.027-2t-.081-1.472q-.054-.618-.121-1.035a6.183,6.183,0,0,0-.148-.7v-.054h3.105v.054a6.184,6.184,0,0,0-.148.7q-.067.417-.121,1.035T25.735-13.7q-.027.854-.027,2Zm16.127-3.8q0-1.143-.034-2t-.081-1.472q-.047-.618-.121-1.035a7.145,7.145,0,0,0-.155-.7v-.054h3.105v.054a4.651,4.651,0,0,0-.181.753,11.076,11.076,0,0,0-.114,1.143q.5-.417,1.035-.82a9.21,9.21,0,0,1,1.1-.712,6.6,6.6,0,0,1,1.149-.5,3.819,3.819,0,0,1,1.176-.188,5.168,5.168,0,0,1,.632.034,3.312,3.312,0,0,1,.484.094,3.286,3.286,0,0,1,.39.134l.336.141L49.9-14.259l-.229-.054a1.779,1.779,0,0,0-.6-.948,1.879,1.879,0,0,0-1.21-.356,2.837,2.837,0,0,0-.874.148,5.2,5.2,0,0,0-.927.41,9.227,9.227,0,0,0-.941.6q-.47.343-.914.719-.027.39-.027.847v4.436q0,1.143.027,2t.081,1.472q.054.618.121,1.035a6.183,6.183,0,0,0,.148.7V-3.2H41.446V-3.25a7.145,7.145,0,0,0,.155-.7q.074-.417.121-1.035T41.8-6.456q.034-.854.034-2Zm12.417,1.6a6.979,6.979,0,0,1,.565-2.816,6.953,6.953,0,0,1,1.553-2.251A7.125,7.125,0,0,1,58.7-16.665a7.709,7.709,0,0,1,2.89-.538,8.032,8.032,0,0,1,2.856.5,7,7,0,0,1,2.332,1.432,6.606,6.606,0,0,1,1.566,2.258,7.493,7.493,0,0,1,.571,2.984,7.448,7.448,0,0,1-.484,2.661,6.617,6.617,0,0,1-1.425,2.258A6.929,6.929,0,0,1,64.7-3.539a7.907,7.907,0,0,1-3.139.585,8.035,8.035,0,0,1-2.836-.5A6.924,6.924,0,0,1,56.4-4.877a6.7,6.7,0,0,1-1.573-2.251A7.369,7.369,0,0,1,54.253-10.105Zm7.621,6.17a4.068,4.068,0,0,0,1.754-.376A3.893,3.893,0,0,0,65.006-5.4a5.209,5.209,0,0,0,.9-1.734,7.667,7.667,0,0,0,.323-2.312,11.15,11.15,0,0,0-.309-2.7A6.71,6.71,0,0,0,65-14.292a4.394,4.394,0,0,0-1.539-1.418,4.415,4.415,0,0,0-2.164-.511,4.085,4.085,0,0,0-1.747.37,3.967,3.967,0,0,0-1.378,1.069,5,5,0,0,0-.907,1.714,7.6,7.6,0,0,0-.323,2.305,11.006,11.006,0,0,0,.316,2.7,6.886,6.886,0,0,0,.934,2.171A4.489,4.489,0,0,0,59.73-4.453,4.3,4.3,0,0,0,61.874-3.936ZM74.682-11.7q0-1.143-.034-2t-.081-1.472q-.047-.618-.121-1.035a7.146,7.146,0,0,0-.155-.7v-.054H77.4v.054a4.65,4.65,0,0,0-.181.753,11.077,11.077,0,0,0-.114,1.143q.5-.417,1.035-.82a9.21,9.21,0,0,1,1.1-.712,6.6,6.6,0,0,1,1.149-.5,3.819,3.819,0,0,1,1.176-.188,5.168,5.168,0,0,1,.632.034,3.312,3.312,0,0,1,.484.094,3.286,3.286,0,0,1,.39.134l.336.141-.659,2.567-.229-.054a1.779,1.779,0,0,0-.6-.948,1.879,1.879,0,0,0-1.21-.356,2.837,2.837,0,0,0-.874.148,5.2,5.2,0,0,0-.927.41,9.227,9.227,0,0,0-.941.6q-.47.343-.914.719-.027.39-.027.847v4.436q0,1.143.027,2t.081,1.472q.054.618.121,1.035a6.183,6.183,0,0,0,.148.7V-3.2H74.292V-3.25a7.146,7.146,0,0,0,.155-.7q.074-.417.121-1.035t.081-1.472q.034-.854.034-2ZM86.6-7.162A3.707,3.707,0,0,1,87.039-9,4.289,4.289,0,0,1,88.2-10.334a6.359,6.359,0,0,1,1.653-.894,12.43,12.43,0,0,1,1.922-.538,16.894,16.894,0,0,1,1.962-.269q.968-.074,1.774-.087v-.686a4.6,4.6,0,0,0-.229-1.532,2.856,2.856,0,0,0-.645-1.069,2.615,2.615,0,0,0-1-.632,3.8,3.8,0,0,0-1.284-.208,5.638,5.638,0,0,0-.954.081,5.4,5.4,0,0,0-.975.269,7.1,7.1,0,0,0-1.062.511,11.109,11.109,0,0,0-1.2.82l-.134-.081.914-1.9a6.77,6.77,0,0,1,.874-.329,8.259,8.259,0,0,1,.874-.208A8.505,8.505,0,0,1,91.6-17.2q.464-.034.975-.034a7.489,7.489,0,0,1,2.413.343,4.484,4.484,0,0,1,1.64.941,3.61,3.61,0,0,1,.934,1.4,4.9,4.9,0,0,1,.3,1.714v4.382q0,1.143.034,2t.081,1.472q.047.618.121,1.035a7.141,7.141,0,0,0,.155.7V-3.2H95.272V-3.25a2.784,2.784,0,0,0,.1-.484q.034-.269.06-.645a6.944,6.944,0,0,1-.665.5,5.323,5.323,0,0,1-.874.464,5.975,5.975,0,0,1-1.089.336,6.282,6.282,0,0,1-1.311.128,5.389,5.389,0,0,1-3.616-1.1A3.876,3.876,0,0,1,86.6-7.162Zm8.912-3.912a23.207,23.207,0,0,0-2.352.141,6.422,6.422,0,0,0-2,.531,3.385,3.385,0,0,0-1.384,1.149,3.416,3.416,0,0,0-.518,1.983,3.378,3.378,0,0,0,.793,2.42,2.88,2.88,0,0,0,2.191.833A3.619,3.619,0,0,0,93.423-4.2a3.992,3.992,0,0,0,.941-.457,3.405,3.405,0,0,0,.692-.6,2.96,2.96,0,0,0,.43-.638q.027-.511.027-1.136v-4.039Zm35.6-8.441-.121.054a7.958,7.958,0,0,0-2.52-1.546,8.77,8.77,0,0,0-3.233-.578,8.754,8.754,0,0,0-3.105.531,6.783,6.783,0,0,0-2.426,1.539,6.958,6.958,0,0,0-1.579,2.473,9.22,9.22,0,0,0-.565,3.334A13.219,13.219,0,0,0,118.1-9.87a8.893,8.893,0,0,0,1.6,3.085,7.438,7.438,0,0,0,2.655,2.05,8.679,8.679,0,0,0,3.717.746,7.42,7.42,0,0,0,1.532-.161,7.245,7.245,0,0,0,1.472-.477,7.541,7.541,0,0,0,1.331-.766,6.871,6.871,0,0,0,1.136-1.028l.148.094-1.075,2.742a11.585,11.585,0,0,1-2.225.6,14.505,14.505,0,0,1-2.453.208,13.747,13.747,0,0,1-4.55-.719,10.473,10.473,0,0,1-3.549-2.036A9.2,9.2,0,0,1,115.53-8.7a9.946,9.946,0,0,1-.827-4.106,9.727,9.727,0,0,1,.329-2.514,9.952,9.952,0,0,1,.961-2.352,9.65,9.65,0,0,1,1.559-2.05,10,10,0,0,1,2.117-1.62,10.829,10.829,0,0,1,2.621-1.069,11.954,11.954,0,0,1,3.1-.383A14.193,14.193,0,0,1,130.2-22Zm14.582-3.28a11.443,11.443,0,0,1,4.147.733,9.781,9.781,0,0,1,3.286,2.057,9.356,9.356,0,0,1,2.164,3.179,10.479,10.479,0,0,1,.78,4.1,10.771,10.771,0,0,1-.3,2.514,10.235,10.235,0,0,1-.867,2.339,9.873,9.873,0,0,1-1.4,2.036,9.007,9.007,0,0,1-1.9,1.613,9.32,9.32,0,0,1-2.359,1.062,9.735,9.735,0,0,1-2.782.383,11.633,11.633,0,0,1-4.147-.719,9.665,9.665,0,0,1-3.287-2.036A9.3,9.3,0,0,1,136.866-8.7a10.465,10.465,0,0,1-.78-4.106,10.77,10.77,0,0,1,.3-2.514,10.5,10.5,0,0,1,.867-2.352,9.866,9.866,0,0,1,1.4-2.05,9.019,9.019,0,0,1,1.9-1.62,9.158,9.158,0,0,1,2.366-1.069A9.8,9.8,0,0,1,145.7-22.794Zm.766,18.8a6.771,6.771,0,0,0,2.729-.538,5.952,5.952,0,0,0,2.131-1.559,7.269,7.269,0,0,0,1.391-2.493,10.408,10.408,0,0,0,.5-3.34,14.687,14.687,0,0,0-.477-3.838,9.286,9.286,0,0,0-1.418-3.065,6.678,6.678,0,0,0-2.346-2.03,6.981,6.981,0,0,0-3.273-.733,6.846,6.846,0,0,0-2.729.531,5.952,5.952,0,0,0-2.131,1.539,7.13,7.13,0,0,0-1.391,2.473,10.346,10.346,0,0,0-.5,3.334,14.985,14.985,0,0,0,.47,3.838,9.254,9.254,0,0,0,1.411,3.085,6.763,6.763,0,0,0,2.352,2.05A6.917,6.917,0,0,0,146.463-3.989Zm18.224-4.463q0,1.143.034,2t.081,1.472q.047.618.121,1.035a7.143,7.143,0,0,0,.155.7V-3.2h-3.226V-3.25a7.143,7.143,0,0,0,.155-.7q.074-.417.128-1.035t.081-1.472q.027-.854.027-2V-17.2q0-1.143-.027-2t-.081-1.479q-.054-.625-.128-1.042a7.143,7.143,0,0,0-.155-.7v-.054q1.116,0,2.258-.007l2.218-.013q1.075-.007,2.043-.027t1.747-.04q.78-.02,1.317-.054t.766-.074l-.659,1.788a9.871,9.871,0,0,0-1.035-.215q-.511-.081-1.243-.155t-1.687-.074q-.323,0-.807.02t-.954.047l-1.129.054v6.788q1.385-.013,2.54-.081t1.989-.134q.968-.081,1.747-.188l-.4,1.949q-1.008-.121-2.043-.229-.887-.094-1.909-.168t-1.922-.074Zm15.576,0q0,1.143.034,2t.081,1.472q.047.618.121,1.035a7.148,7.148,0,0,0,.155.7V-3.2h-3.226V-3.25a7.148,7.148,0,0,0,.155-.7q.074-.417.128-1.035t.081-1.472q.027-.854.027-2V-17.2q0-1.143-.027-2t-.081-1.479q-.054-.625-.128-1.042a7.148,7.148,0,0,0-.155-.7v-.054q1.116,0,2.258-.007l2.218-.013q1.075-.007,2.043-.027t1.747-.04q.78-.02,1.317-.054t.766-.074l-.659,1.788a9.871,9.871,0,0,0-1.035-.215q-.511-.081-1.243-.155t-1.687-.074q-.323,0-.807.02t-.954.047l-1.129.054v6.788q1.385-.013,2.54-.081t1.989-.134q.968-.081,1.747-.188l-.4,1.949q-1.008-.121-2.043-.229-.887-.094-1.909-.168t-1.922-.074ZM193-22.472q1.68,0,3.34-.013t3.045-.034q1.385-.02,2.366-.06a10.849,10.849,0,0,0,1.331-.108l-.659,1.788a9.871,9.871,0,0,0-1.035-.215q-.511-.081-1.243-.155t-1.687-.074q-.323,0-.773.02t-.867.047l-.981.054v7.339q1.385-.013,2.5-.081t1.9-.134q.914-.081,1.613-.188l-.417,1.949q-.927-.121-1.9-.229-.833-.094-1.815-.168t-1.882-.074v8.428a29.158,29.158,0,0,0,2.917-.134q1.331-.134,2.325-.309,1.156-.188,2.11-.444l-.39,2.178q-.161-.013-.484-.027l-.719-.027q-.4-.013-.833-.02l-.827-.013-.692-.013q-.3-.007-.437-.007H193V-3.25a7.148,7.148,0,0,0,.155-.7q.074-.417.128-1.035t.081-1.472q.027-.854.027-2V-17.2q0-1.143-.027-2t-.081-1.479q-.054-.625-.128-1.042a7.148,7.148,0,0,0-.155-.7Zm16.248,0q1.68,0,3.34-.013t3.045-.034q1.385-.02,2.366-.06a10.849,10.849,0,0,0,1.331-.108l-.659,1.788a9.872,9.872,0,0,0-1.035-.215q-.511-.081-1.243-.155t-1.687-.074q-.323,0-.773.02t-.867.047l-.981.054v7.339q1.385-.013,2.5-.081t1.9-.134q.914-.081,1.613-.188l-.417,1.949q-.927-.121-1.9-.229-.833-.094-1.815-.168t-1.882-.074v8.428a29.158,29.158,0,0,0,2.917-.134q1.331-.134,2.325-.309,1.156-.188,2.11-.444l-.39,2.178q-.161-.013-.484-.027l-.719-.027q-.4-.013-.833-.02l-.827-.013L215.5-3.19q-.3-.007-.437-.007h-5.807V-3.25a7.148,7.148,0,0,0,.155-.7q.074-.417.128-1.035t.081-1.472q.027-.854.027-2V-17.2q0-1.143-.027-2t-.081-1.479q-.054-.625-.128-1.042a7.148,7.148,0,0,0-.155-.7Z" transform="translate(0.313 22.875)" fill="#fff"/>
</svg>
