<svg xmlns="http://www.w3.org/2000/svg" width="255.447" height="23.359" viewBox="0 0 255.447 23.359"><path d="M17.734,0V-.062A.914.914,0,0,0,17.781-.3q.016-.156.016-.281a4.876,4.876,0,0,0-.133-1.07,8.837,8.837,0,0,0-.508-1.461l-1.891-4.25q-.875-.031-2.328-.031H7.414q-1.148,0-2.07.031l-1.8,4.125q-.234.578-.5,1.266A3.831,3.831,0,0,0,2.781-.578a1.5,1.5,0,0,0,.031.336.616.616,0,0,0,.063.18V0H-.312V-.062a5.62,5.62,0,0,0,.7-1.055q.422-.758.922-1.9l8.953-19.859h1.25L20-3.781q.3.672.617,1.3t.6,1.133q.281.5.5.844t.3.438V0ZM7.609-8.734q.906,0,1.859-.008l1.867-.016,1.758-.016q.844-.008,1.531-.023l-4.391-9.922L5.922-8.734ZM29.934-5.469a4.633,4.633,0,0,0,.82,3.031,2.748,2.748,0,0,0,2.211.969,3.56,3.56,0,0,0,1.125-.211,8.737,8.737,0,0,0,1.289-.562,12.228,12.228,0,0,0,1.328-.82,11.132,11.132,0,0,0,1.227-1q.031-.453.031-.961V-9.891q0-1.328-.039-2.32t-.094-1.711q-.055-.719-.141-1.2a8.306,8.306,0,0,0-.18-.812V-16h3.609v.063a7.188,7.188,0,0,0-.172.813q-.078.484-.141,1.2t-.094,1.711q-.031.992-.031,2.32v3.781q0,1.328.031,2.32t.094,1.711q.063.719.141,1.2a7.188,7.188,0,0,0,.172.813V0H37.513V-.062q.094-.391.2-1a14.179,14.179,0,0,0,.148-1.594q-.641.547-1.383,1.078a13.126,13.126,0,0,1-1.547.953A9.874,9.874,0,0,1,33.3.055a5.373,5.373,0,0,1-1.617.258,4.628,4.628,0,0,1-2.07-.422,3.979,3.979,0,0,1-1.391-1.109,4.411,4.411,0,0,1-.781-1.562,6.7,6.7,0,0,1-.242-1.8V-9.891q0-1.328-.031-2.32t-.094-1.711q-.062-.719-.141-1.2a7.188,7.188,0,0,0-.172-.812V-16h3.609v.063a7.188,7.188,0,0,0-.172.813q-.078.484-.141,1.2t-.094,1.711q-.031.992-.031,2.32ZM48.681-9.891q0-1.328-.039-2.32t-.094-1.711q-.055-.719-.141-1.2a8.306,8.306,0,0,0-.18-.812V-16h3.609v.063a5.406,5.406,0,0,0-.211.875,12.874,12.874,0,0,0-.133,1.328q.578-.484,1.2-.953a10.706,10.706,0,0,1,1.281-.828,7.673,7.673,0,0,1,1.336-.578,4.439,4.439,0,0,1,1.367-.219,6.008,6.008,0,0,1,.734.039,3.85,3.85,0,0,1,.563.109,3.82,3.82,0,0,1,.453.156l.391.164-.766,2.984-.266-.062a2.068,2.068,0,0,0-.7-1.1,2.185,2.185,0,0,0-1.406-.414,3.3,3.3,0,0,0-1.016.172,6.042,6.042,0,0,0-1.078.477,10.725,10.725,0,0,0-1.094.7q-.547.4-1.062.836-.031.453-.031.984v5.156q0,1.328.031,2.32t.094,1.711q.063.719.141,1.2a7.188,7.188,0,0,0,.172.813V0H48.228V-.062a8.306,8.306,0,0,0,.18-.812q.086-.484.141-1.2t.094-1.711q.039-.992.039-2.32ZM63.116-8.031a8.113,8.113,0,0,1,.656-3.273,8.082,8.082,0,0,1,1.8-2.617,8.282,8.282,0,0,1,2.711-1.734,8.961,8.961,0,0,1,3.359-.625,9.336,9.336,0,0,1,3.32.586,8.134,8.134,0,0,1,2.711,1.664,7.679,7.679,0,0,1,1.82,2.625,8.71,8.71,0,0,1,.664,3.469A8.658,8.658,0,0,1,79.6-4.844a7.692,7.692,0,0,1-1.656,2.625A8.054,8.054,0,0,1,75.264-.4a9.191,9.191,0,0,1-3.648.68,9.34,9.34,0,0,1-3.3-.578,8.049,8.049,0,0,1-2.7-1.656A7.789,7.789,0,0,1,63.787-4.57,8.565,8.565,0,0,1,63.116-8.031ZM71.975-.859A4.728,4.728,0,0,0,74.014-1.3a4.526,4.526,0,0,0,1.6-1.266,6.055,6.055,0,0,0,1.047-2.016,8.912,8.912,0,0,0,.375-2.687,12.961,12.961,0,0,0-.359-3.133,7.8,7.8,0,0,0-1.07-2.5,5.107,5.107,0,0,0-1.789-1.648,5.132,5.132,0,0,0-2.516-.594,4.749,4.749,0,0,0-2.031.43,4.611,4.611,0,0,0-1.6,1.242,5.806,5.806,0,0,0-1.055,1.992,8.836,8.836,0,0,0-.375,2.68,12.793,12.793,0,0,0,.367,3.141,8,8,0,0,0,1.086,2.523,5.219,5.219,0,0,0,1.789,1.672A5,5,0,0,0,71.975-.859ZM86.863-9.891q0-1.328-.039-2.32t-.094-1.711q-.055-.719-.141-1.2a8.3,8.3,0,0,0-.18-.812V-16h3.609v.063a5.405,5.405,0,0,0-.211.875,12.876,12.876,0,0,0-.133,1.328q.578-.484,1.2-.953a10.706,10.706,0,0,1,1.281-.828,7.673,7.673,0,0,1,1.336-.578,4.439,4.439,0,0,1,1.367-.219,6.008,6.008,0,0,1,.734.039,3.85,3.85,0,0,1,.563.109,3.82,3.82,0,0,1,.453.156l.391.164-.766,2.984-.266-.062a2.068,2.068,0,0,0-.7-1.1,2.185,2.185,0,0,0-1.406-.414,3.3,3.3,0,0,0-1.016.172,6.042,6.042,0,0,0-1.078.477,10.725,10.725,0,0,0-1.094.7q-.547.4-1.062.836-.031.453-.031.984v5.156q0,1.328.031,2.32t.094,1.711q.062.719.141,1.2a7.189,7.189,0,0,0,.172.813V0H86.409V-.062a8.3,8.3,0,0,0,.18-.812q.086-.484.141-1.2t.094-1.711q.039-.992.039-2.32Zm13.856,5.281a4.31,4.31,0,0,1,.508-2.141A4.986,4.986,0,0,1,102.578-8.3,7.392,7.392,0,0,1,104.5-9.336a14.449,14.449,0,0,1,2.234-.625,19.639,19.639,0,0,1,2.281-.312q1.125-.086,2.063-.1v-.8a5.346,5.346,0,0,0-.266-1.781,3.32,3.32,0,0,0-.75-1.242,3.04,3.04,0,0,0-1.164-.734,4.418,4.418,0,0,0-1.492-.242,6.554,6.554,0,0,0-1.109.094,6.279,6.279,0,0,0-1.133.313,8.247,8.247,0,0,0-1.234.594,12.912,12.912,0,0,0-1.4.953l-.156-.094,1.063-2.2a7.869,7.869,0,0,1,1.016-.383,9.6,9.6,0,0,1,1.016-.242,9.886,9.886,0,0,1,1.055-.133q.539-.039,1.133-.039a8.706,8.706,0,0,1,2.8.4,5.212,5.212,0,0,1,1.906,1.094,4.2,4.2,0,0,1,1.086,1.625A5.7,5.7,0,0,1,113.8-11.2v5.094q0,1.328.039,2.32t.094,1.711q.055.719.141,1.2a8.3,8.3,0,0,0,.18.813V0H110.8V-.062a3.236,3.236,0,0,0,.117-.562q.039-.313.07-.75a8.072,8.072,0,0,1-.773.578,6.188,6.188,0,0,1-1.016.539,6.945,6.945,0,0,1-1.266.391,7.3,7.3,0,0,1-1.523.148,6.265,6.265,0,0,1-4.2-1.273A4.506,4.506,0,0,1,100.719-4.609Zm10.359-4.547a26.976,26.976,0,0,0-2.734.164,7.465,7.465,0,0,0-2.32.617,3.934,3.934,0,0,0-1.609,1.336,3.971,3.971,0,0,0-.6,2.3,3.927,3.927,0,0,0,.922,2.813,3.348,3.348,0,0,0,2.547.969,4.207,4.207,0,0,0,1.367-.211,4.641,4.641,0,0,0,1.094-.531,3.959,3.959,0,0,0,.8-.7,3.44,3.44,0,0,0,.5-.742q.031-.594.031-1.32v-4.7Zm41.384-9.812-.141.063a9.251,9.251,0,0,0-2.93-1.8,10.2,10.2,0,0,0-3.758-.672,10.176,10.176,0,0,0-3.609.617,7.885,7.885,0,0,0-2.82,1.789,8.088,8.088,0,0,0-1.836,2.875,10.718,10.718,0,0,0-.656,3.875,15.366,15.366,0,0,0,.625,4.461A10.338,10.338,0,0,0,139.2-4.172a8.646,8.646,0,0,0,3.086,2.383,10.089,10.089,0,0,0,4.32.867,8.625,8.625,0,0,0,1.781-.187,8.422,8.422,0,0,0,1.711-.555,8.767,8.767,0,0,0,1.547-.891,7.987,7.987,0,0,0,1.32-1.2l.172.109-1.25,3.188a13.467,13.467,0,0,1-2.586.7,16.861,16.861,0,0,1-2.852.242,15.98,15.98,0,0,1-5.289-.836,12.174,12.174,0,0,1-4.125-2.367,10.691,10.691,0,0,1-2.687-3.68,11.562,11.562,0,0,1-.961-4.773,11.307,11.307,0,0,1,.383-2.922,11.569,11.569,0,0,1,1.117-2.734,11.217,11.217,0,0,1,1.813-2.383,11.626,11.626,0,0,1,2.461-1.883,12.588,12.588,0,0,1,3.047-1.242,13.9,13.9,0,0,1,3.6-.445,16.5,16.5,0,0,1,5.594.922Zm16.95-3.812a13.3,13.3,0,0,1,4.82.852,11.369,11.369,0,0,1,3.82,2.391,10.875,10.875,0,0,1,2.516,3.7,12.181,12.181,0,0,1,.906,4.766,12.52,12.52,0,0,1-.344,2.922,11.9,11.9,0,0,1-1.008,2.719,11.477,11.477,0,0,1-1.633,2.367A10.47,10.47,0,0,1,176.28-1.2,10.834,10.834,0,0,1,173.538.039,11.317,11.317,0,0,1,170.3.484a13.523,13.523,0,0,1-4.82-.836,11.234,11.234,0,0,1-3.82-2.367,10.811,10.811,0,0,1-2.516-3.68,12.165,12.165,0,0,1-.906-4.773,12.52,12.52,0,0,1,.344-2.922,12.2,12.2,0,0,1,1.008-2.734,11.468,11.468,0,0,1,1.625-2.383,10.484,10.484,0,0,1,2.2-1.883,10.645,10.645,0,0,1,2.75-1.242A11.4,11.4,0,0,1,169.413-22.781ZM170.3-.922a7.871,7.871,0,0,0,3.172-.625,6.919,6.919,0,0,0,2.477-1.812,8.449,8.449,0,0,0,1.617-2.9,12.1,12.1,0,0,0,.578-3.883,17.072,17.072,0,0,0-.555-4.461,10.8,10.8,0,0,0-1.648-3.562,7.763,7.763,0,0,0-2.727-2.359,8.115,8.115,0,0,0-3.8-.852,7.957,7.957,0,0,0-3.172.617,6.919,6.919,0,0,0-2.477,1.789,8.288,8.288,0,0,0-1.617,2.875,12.026,12.026,0,0,0-.578,3.875,17.419,17.419,0,0,0,.547,4.461,10.757,10.757,0,0,0,1.641,3.586,7.861,7.861,0,0,0,2.734,2.383A8.041,8.041,0,0,0,170.3-.922Zm21.184-5.187q0,1.328.039,2.32t.094,1.711q.055.719.141,1.2a8.307,8.307,0,0,0,.18.813V0h-3.75V-.062a8.307,8.307,0,0,0,.18-.812q.086-.484.148-1.2t.094-1.711q.031-.992.031-2.32V-16.281q0-1.328-.031-2.32t-.094-1.719q-.063-.727-.148-1.211a8.307,8.307,0,0,0-.18-.812v-.062q1.3,0,2.625-.008l2.578-.016q1.25-.008,2.375-.031t2.031-.047q.906-.023,1.531-.062t.891-.086l-.766,2.078a11.474,11.474,0,0,0-1.2-.25q-.594-.094-1.445-.18t-1.961-.086q-.375,0-.937.023t-1.109.055l-1.312.063v7.891q1.609-.016,2.953-.094t2.313-.156q1.125-.094,2.031-.219l-.469,2.266q-1.172-.141-2.375-.266-1.031-.109-2.219-.2t-2.234-.086Zm18.106,0q0,1.328.039,2.32t.094,1.711q.055.719.141,1.2a8.307,8.307,0,0,0,.18.813V0H206.3V-.062a8.307,8.307,0,0,0,.18-.812q.086-.484.148-1.2t.094-1.711q.031-.992.031-2.32V-16.281q0-1.328-.031-2.32t-.094-1.719q-.063-.727-.148-1.211a8.307,8.307,0,0,0-.18-.812v-.062q1.3,0,2.625-.008l2.578-.016q1.25-.008,2.375-.031t2.031-.047q.906-.023,1.531-.062t.891-.086l-.766,2.078a11.474,11.474,0,0,0-1.2-.25q-.594-.094-1.445-.18t-1.961-.086q-.375,0-.937.023t-1.109.055l-1.312.063v7.891q1.609-.016,2.953-.094t2.313-.156q1.125-.094,2.031-.219l-.469,2.266q-1.172-.141-2.375-.266-1.031-.109-2.219-.2t-2.234-.086Zm14.809-16.3q1.953,0,3.883-.016t3.539-.039q1.609-.023,2.75-.07a12.612,12.612,0,0,0,1.547-.125l-.766,2.078a11.474,11.474,0,0,0-1.2-.25q-.594-.094-1.445-.18t-1.961-.086q-.375,0-.9.023t-1.008.055l-1.141.063v8.531q1.609-.016,2.906-.094t2.2-.156q1.062-.094,1.875-.219l-.484,2.266q-1.078-.141-2.2-.266-.969-.109-2.109-.2t-2.187-.086v9.8a33.894,33.894,0,0,0,3.391-.156q1.547-.156,2.7-.359,1.344-.219,2.453-.516L235.794.125q-.187-.016-.562-.031T234.4.063q-.461-.016-.969-.023l-.961-.016-.8-.016Q231.309,0,231.153,0H224.4V-.062a8.307,8.307,0,0,0,.18-.812q.086-.484.148-1.2t.094-1.711q.031-.992.031-2.32V-16.281q0-1.328-.031-2.32t-.094-1.719q-.063-.727-.148-1.211a8.307,8.307,0,0,0-.18-.812Zm18.887,0q1.953,0,3.883-.016t3.539-.039q1.609-.023,2.75-.07a12.612,12.612,0,0,0,1.547-.125l-.766,2.078a11.474,11.474,0,0,0-1.2-.25q-.594-.094-1.445-.18t-1.961-.086q-.375,0-.9.023t-1.008.055l-1.141.063v8.531q1.609-.016,2.906-.094t2.2-.156q1.062-.094,1.875-.219l-.484,2.266q-1.078-.141-2.2-.266-.969-.109-2.109-.2t-2.187-.086v9.8a33.894,33.894,0,0,0,3.391-.156q1.547-.156,2.7-.359,1.344-.219,2.453-.516L254.681.125q-.187-.016-.562-.031t-.836-.031q-.461-.016-.969-.023l-.961-.016-.8-.016Q250.2,0,250.041,0h-6.75V-.062a8.307,8.307,0,0,0,.18-.812q.086-.484.148-1.2t.094-1.711q.031-.992.031-2.32V-16.281q0-1.328-.031-2.32t-.094-1.719q-.063-.727-.148-1.211a8.307,8.307,0,0,0-.18-.812Z" transform="translate(0.313 22.875)" fill="#fff"/></svg>