<svg xmlns="http://www.w3.org/2000/svg" width="1160" height="80.01" viewBox="0 0 1160 80.01"><path d="M-1485.139-94.344a102.938,102.938,0,0,0-11.227.553q-5.007.553-8.644,1.186-4.217.791-7.537,1.739l1.529-8.539q.632.053,1.9.105t2.82.105q1.555.053,3.268.079t3.241.053q1.529.026,2.714.053t1.713.026h30.1q.527,0,1.713-.026t2.714-.053q1.529-.026,3.242-.053t3.268-.079q1.555-.053,2.82-.105t1.9-.105l1.528,8.539q-3.373-.949-7.59-1.739-3.636-.632-8.644-1.186a102.942,102.942,0,0,0-11.227-.553v50.335q0,4.48.132,7.827t.316,5.771q.184,2.425.474,4.058a27.945,27.945,0,0,0,.606,2.741v.211h-12.6v-.211a24.2,24.2,0,0,0,.58-2.741q.264-1.634.474-4.058t.316-5.771q.105-3.347.105-7.827Zm42.05,55.4a14.539,14.539,0,0,1,1.713-7.221,16.818,16.818,0,0,1,4.559-5.218,24.934,24.934,0,0,1,6.483-3.505A48.737,48.737,0,0,1-1422.8-57a66.247,66.247,0,0,1,7.7-1.054q3.795-.29,6.957-.343v-2.688a18.035,18.035,0,0,0-.9-6.009,11.2,11.2,0,0,0-2.53-4.19,10.254,10.254,0,0,0-3.927-2.477,14.9,14.9,0,0,0-5.034-.817,22.108,22.108,0,0,0-3.742.316,21.18,21.18,0,0,0-3.821,1.054,27.817,27.817,0,0,0-4.164,2,43.529,43.529,0,0,0-4.717,3.215l-.527-.316,3.584-7.432a26.554,26.554,0,0,1,3.426-1.291,32.39,32.39,0,0,1,3.426-.817,33.348,33.348,0,0,1,3.558-.448q1.818-.132,3.821-.132a29.368,29.368,0,0,1,9.461,1.344,17.582,17.582,0,0,1,6.43,3.689,14.152,14.152,0,0,1,3.663,5.482,19.226,19.226,0,0,1,1.16,6.72v17.183q0,4.48.132,7.827t.316,5.771q.185,2.425.474,4.058t.606,2.741v.211h-11.648v-.211a10.915,10.915,0,0,0,.4-1.9q.132-1.054.237-2.53a27.242,27.242,0,0,1-2.609,1.95,20.873,20.873,0,0,1-3.426,1.818,23.43,23.43,0,0,1-4.269,1.318,24.634,24.634,0,0,1-5.139.5q-9.171,0-14.178-4.3T-1443.089-38.949Zm34.945-15.338a91,91,0,0,0-9.224.553,25.182,25.182,0,0,0-7.827,2.082,13.269,13.269,0,0,0-5.429,4.506,13.4,13.4,0,0,0-2.029,7.774q0,6.219,3.11,9.487t8.591,3.268a14.191,14.191,0,0,0,4.612-.712,15.659,15.659,0,0,0,3.69-1.792,13.359,13.359,0,0,0,2.714-2.372,11.6,11.6,0,0,0,1.687-2.5q.105-2,.105-4.454V-54.286Zm59.707-12.492-.738.105a11.85,11.85,0,0,0-1.186-2.583,10.916,10.916,0,0,0-2.108-2.53,10.96,10.96,0,0,0-3.11-1.924,10.74,10.74,0,0,0-4.19-.764,9.852,9.852,0,0,0-3.083.474,7.388,7.388,0,0,0-2.53,1.4,6.609,6.609,0,0,0-1.713,2.293,7.61,7.61,0,0,0-.632,3.215,8.581,8.581,0,0,0,1.608,4.928,29.03,29.03,0,0,0,4.032,4.638q2.424,2.293,5.244,4.612a60.347,60.347,0,0,1,5.245,4.849,26.546,26.546,0,0,1,4.032,5.4,12.478,12.478,0,0,1,1.608,6.193,14.962,14.962,0,0,1-.949,5.244,12.752,12.752,0,0,1-2.925,4.559,14.683,14.683,0,0,1-5.06,3.241,19.694,19.694,0,0,1-7.353,1.239,22.242,22.242,0,0,1-4.717-.474,26.285,26.285,0,0,1-4.006-1.186,21.76,21.76,0,0,1-3.268-1.581q-1.449-.87-2.556-1.66l.527-10.014h.843a18.165,18.165,0,0,0,1.581,4.533,12.593,12.593,0,0,0,2.609,3.505,11.587,11.587,0,0,0,3.558,2.266,11.475,11.475,0,0,0,4.375.817,8.663,8.663,0,0,0,6.193-2.161,7.4,7.4,0,0,0,2.293-5.64,9.11,9.11,0,0,0-1.555-5.139,24.289,24.289,0,0,0-3.927-4.506q-2.372-2.161-5.086-4.322a53.02,53.02,0,0,1-5.086-4.612,23.706,23.706,0,0,1-3.927-5.376,13.986,13.986,0,0,1-1.555-6.667,13.7,13.7,0,0,1,1.133-5.613,12.722,12.722,0,0,1,3.162-4.375,14.433,14.433,0,0,1,4.823-2.82,18,18,0,0,1,6.114-1,24.621,24.621,0,0,1,7.3.922,25.565,25.565,0,0,1,4.454,1.766Zm44.264,40.268a8.916,8.916,0,0,0,3.136-.58,13.7,13.7,0,0,0,3-1.581,22.482,22.482,0,0,0,2.793-2.293,30.348,30.348,0,0,0,2.5-2.714l.527.264-3.426,8.486q-.633.316-1.555.764a15.48,15.48,0,0,1-2.214.843,23.855,23.855,0,0,1-3.031.685,25.354,25.354,0,0,1-4.111.29q-7.063,0-10.99-3.821t-3.927-11.938V-73.261l-8.855.316v-4.638q1.634.105,3.9.158t4.954.053q-.053-3.742-.185-6.615t-.316-5.007q-.185-2.135-.448-3.61t-.527-2.477v-.211h12.175v.211a20.116,20.116,0,0,0-.58,2.477q-.264,1.476-.448,3.584t-.316,4.981q-.132,2.873-.185,6.667,3.32-.053,6.509-.132t5.8-.211q2.609-.132,4.427-.264t2.4-.237l-.949,5.376q-2.688-.053-5.64-.158-2.53-.105-5.8-.158t-6.746-.105V-37a16.341,16.341,0,0,0,.712,5.3,8.531,8.531,0,0,0,1.845,3.189,5.867,5.867,0,0,0,2.582,1.581A10.609,10.609,0,0,0-1304.174-26.51Zm56.755,4.058a32.059,32.059,0,0,1-10.963-1.845,25.527,25.527,0,0,1-8.907-5.4,25.134,25.134,0,0,1-5.982-8.8,30.92,30.92,0,0,1-2.187-11.991,29.87,29.87,0,0,1,2-11.042,27.259,27.259,0,0,1,5.534-8.828,25.579,25.579,0,0,1,8.249-5.85,24.707,24.707,0,0,1,10.2-2.108,26.658,26.658,0,0,1,10.067,1.871,22.759,22.759,0,0,1,8.038,5.429,25.637,25.637,0,0,1,5.376,8.8,36.136,36.136,0,0,1,2.135,11.938q-5.956-.105-11.912-.158t-12.386-.053q-4.586,0-8.934.053t-7.827.158a40.706,40.706,0,0,0,1.713,9.909,23.758,23.758,0,0,0,3.848,7.563,16.626,16.626,0,0,0,5.956,4.823,18.067,18.067,0,0,0,7.933,1.687,22.683,22.683,0,0,0,5.771-.712,20.214,20.214,0,0,0,4.928-1.977,19.116,19.116,0,0,0,3.953-2.978,19.058,19.058,0,0,0,2.952-3.716l.632.316-3.9,9.382a32.674,32.674,0,0,1-6.8,2.5A38.12,38.12,0,0,1-1247.419-22.451Zm-7.01-32.151q5.271,0,10.568-.026t9.619-.184a34.564,34.564,0,0,0-1.792-8.222,21.06,21.06,0,0,0-3.373-6.167,14.343,14.343,0,0,0-4.849-3.9,13.811,13.811,0,0,0-6.167-1.37,11.876,11.876,0,0,0-5.613,1.344,13.285,13.285,0,0,0-4.454,3.874,20.6,20.6,0,0,0-3.057,6.193,32.562,32.562,0,0,0-1.37,8.354q2.372.105,5.007.105Zm76.52-12.175-.738.105a11.827,11.827,0,0,0-1.186-2.583,10.915,10.915,0,0,0-2.108-2.53,10.965,10.965,0,0,0-3.11-1.924,10.739,10.739,0,0,0-4.19-.764,9.854,9.854,0,0,0-3.083.474,7.385,7.385,0,0,0-2.53,1.4,6.608,6.608,0,0,0-1.713,2.293,7.608,7.608,0,0,0-.633,3.215,8.582,8.582,0,0,0,1.608,4.928,29.047,29.047,0,0,0,4.032,4.638q2.425,2.293,5.245,4.612a60.324,60.324,0,0,1,5.244,4.849,26.532,26.532,0,0,1,4.032,5.4,12.475,12.475,0,0,1,1.607,6.193,14.951,14.951,0,0,1-.949,5.244,12.748,12.748,0,0,1-2.925,4.559,14.681,14.681,0,0,1-5.06,3.241,19.694,19.694,0,0,1-7.353,1.239,22.244,22.244,0,0,1-4.718-.474,26.288,26.288,0,0,1-4.006-1.186,21.749,21.749,0,0,1-3.268-1.581q-1.449-.87-2.556-1.66l.527-10.014h.843a18.17,18.17,0,0,0,1.581,4.533,12.593,12.593,0,0,0,2.609,3.505,11.592,11.592,0,0,0,3.558,2.266,11.475,11.475,0,0,0,4.375.817,8.663,8.663,0,0,0,6.193-2.161,7.4,7.4,0,0,0,2.293-5.64,9.111,9.111,0,0,0-1.555-5.139,24.3,24.3,0,0,0-3.927-4.506q-2.372-2.161-5.086-4.322a53,53,0,0,1-5.086-4.612,23.7,23.7,0,0,1-3.927-5.376,13.987,13.987,0,0,1-1.555-6.667,13.694,13.694,0,0,1,1.133-5.613,12.718,12.718,0,0,1,3.162-4.375,14.429,14.429,0,0,1,4.823-2.82,18,18,0,0,1,6.114-1,24.622,24.622,0,0,1,7.3.922,25.567,25.567,0,0,1,4.454,1.766Zm78.881,38.74a114.334,114.334,0,0,0,11.437-.527q5.218-.527,9.118-1.212,4.533-.738,8.275-1.739l-1.528,8.539q-.632-.053-1.9-.105t-2.82-.105q-1.555-.053-3.268-.079t-3.242-.053q-1.528-.026-2.714-.053t-1.713-.026h-22.769v-.211q.316-1.107.606-2.741t.5-4.058q.211-2.425.317-5.771t.105-7.827V-78.321q0-4.48-.105-7.827t-.317-5.8q-.211-2.451-.5-4.085t-.606-2.741v-.211h12.65v.211a27.981,27.981,0,0,0-.606,2.741q-.29,1.634-.474,4.085t-.316,5.8q-.132,3.347-.132,7.827Zm50.219-28.725q0-4.48-.132-7.827t-.316-5.771q-.185-2.424-.474-4.058t-.606-2.741v-.211h12.175v.211a24.27,24.27,0,0,0-.58,2.741q-.263,1.634-.474,4.058t-.316,5.771q-.105,3.347-.105,7.827v12.755q0,4.48.105,7.827t.316,5.771q.211,2.425.474,4.058a24.27,24.27,0,0,0,.58,2.741v.211h-12.175v-.211q.316-1.107.606-2.741t.474-4.058q.184-2.425.316-5.771t.132-7.827Zm-1.107-36.579a5.414,5.414,0,0,1,.448-2.187,6.013,6.013,0,0,1,1.186-1.792,5.452,5.452,0,0,1,1.766-1.212,5.545,5.545,0,0,1,2.24-.448,5.545,5.545,0,0,1,2.24.448,5.766,5.766,0,0,1,1.792,1.212,5.767,5.767,0,0,1,1.212,1.792,5.414,5.414,0,0,1,.448,2.187,5.51,5.51,0,0,1-1.634,4.058,5.51,5.51,0,0,1-4.058,1.634,5.545,5.545,0,0,1-2.24-.448,5.451,5.451,0,0,1-1.766-1.212,6.013,6.013,0,0,1-1.186-1.792A5.544,5.544,0,0,1-1049.915-93.342Zm37.622,11.754q0-4.48-.132-7.827t-.316-5.771q-.184-2.425-.474-4.058a27.982,27.982,0,0,0-.606-2.741v-.211h12.175v.211a24.276,24.276,0,0,0-.58,2.741q-.264,1.634-.474,4.058t-.316,5.771q-.105,3.347-.105,7.827v26.248l17.235-15.443q4.533-3.953,4.533-6.588h12.228v.211a14.821,14.821,0,0,0-2.609,1.08,21.311,21.311,0,0,0-2.477,1.555q-1.239.9-2.583,2.029t-2.925,2.556l-15.443,14.073,21.188,25.036q.949,1.16,2.055,2.345t2.214,2.187a22.315,22.315,0,0,0,2.161,1.739,5.819,5.819,0,0,0,1.95.949v.211h-15.285a6.543,6.543,0,0,0-.712-2.846,20.6,20.6,0,0,0-2.556-3.742l-18.974-22.559v8.539q0,4.48.105,7.827t.316,5.771q.211,2.425.474,4.058a24.276,24.276,0,0,0,.58,2.741v.211h-12.175v-.211a27.981,27.981,0,0,0,.606-2.741q.29-1.634.474-4.058t.316-5.771q.132-3.347.132-7.827Zm85.8,59.137A32.059,32.059,0,0,1-937.459-24.3a25.529,25.529,0,0,1-8.907-5.4,25.137,25.137,0,0,1-5.982-8.8,30.92,30.92,0,0,1-2.187-11.991,29.874,29.874,0,0,1,2-11.042A27.268,27.268,0,0,1-947-70.362a25.582,25.582,0,0,1,8.249-5.85,24.707,24.707,0,0,1,10.2-2.108,26.658,26.658,0,0,1,10.067,1.871,22.76,22.76,0,0,1,8.038,5.429,25.642,25.642,0,0,1,5.376,8.8,36.145,36.145,0,0,1,2.135,11.938q-5.956-.105-11.912-.158t-12.386-.053q-4.586,0-8.934.053t-7.827.158a40.714,40.714,0,0,0,1.713,9.909,23.764,23.764,0,0,0,3.848,7.563,16.63,16.63,0,0,0,5.956,4.823,18.066,18.066,0,0,0,7.932,1.687,22.685,22.685,0,0,0,5.771-.712,20.215,20.215,0,0,0,4.928-1.977,19.121,19.121,0,0,0,3.953-2.978,19.064,19.064,0,0,0,2.952-3.716l.632.316-3.9,9.382a32.674,32.674,0,0,1-6.8,2.5A38.122,38.122,0,0,1-926.5-22.451Zm-7.01-32.151q5.271,0,10.568-.026t9.619-.184a34.57,34.57,0,0,0-1.792-8.222,21.07,21.07,0,0,0-3.373-6.167,14.345,14.345,0,0,0-4.849-3.9,13.811,13.811,0,0,0-6.167-1.37,11.876,11.876,0,0,0-5.613,1.344,13.286,13.286,0,0,0-4.454,3.874,20.6,20.6,0,0,0-3.057,6.193,32.556,32.556,0,0,0-1.37,8.354q2.372.105,5.007.105Zm147.559,31.2v-.211a3.087,3.087,0,0,0,.158-.791q.053-.527.053-.949a16.442,16.442,0,0,0-.448-3.61,29.806,29.806,0,0,0-1.713-4.928l-6.378-14.336q-2.952-.105-7.853-.105H-820.76q-3.874,0-6.984.105l-6.061,13.915q-.79,1.95-1.687,4.269a12.923,12.923,0,0,0-.9,4.691,5.07,5.07,0,0,0,.105,1.133,2.075,2.075,0,0,0,.211.606v.211h-10.752v-.211a18.956,18.956,0,0,0,2.372-3.558q1.423-2.556,3.11-6.4l30.2-66.991h4.217l28.62,64.408q1,2.266,2.082,4.4t2.029,3.821q.949,1.687,1.687,2.846t1,1.476v.211ZM-820.1-52.863q3.057,0,6.272-.026l6.3-.053L-801.6-53q2.846-.026,5.165-.079l-14.811-33.469-14.547,33.68Zm120.573-41.586q-.105,5.9-.211,11.437-.053,2.372-.079,4.849t-.053,4.875q-.026,2.4-.053,4.586t-.026,3.874q0,3.531.053,8.539t.132,10.278q.079,5.271.237,10.12t.369,8.064q.738.105,1.976.237t2.609.211q1.37.079,2.688.132t2.214.053a58.989,58.989,0,0,0,7.564-.5,32.9,32.9,0,0,0,7.484-1.871,27.522,27.522,0,0,0,6.8-3.769,23.014,23.014,0,0,0,5.587-6.193,31.811,31.811,0,0,0,3.769-9.145A51.294,51.294,0,0,0-657.1-61.3a48.557,48.557,0,0,0-1.95-14.363,28.944,28.944,0,0,0-5.719-10.62,24.132,24.132,0,0,0-9.329-6.562,34.006,34.006,0,0,0-12.781-2.24q-1.423,0-3.215.079l-3.558.158q-1.766.079-3.321.211T-699.529-94.449Zm-11.543-4.744q1.212.053,2.266.105.9.053,1.845.079t1.529.026q1,0,3.347-.105t5.35-.211q3-.105,6.246-.211t6.088-.105a54.664,54.664,0,0,1,14.547,1.9A32.071,32.071,0,0,1-657.732-91.5a29.946,29.946,0,0,1,8.275,11.332q3.057,7.01,3.057,17.235a49.764,49.764,0,0,1-1.608,13.177,36.86,36.86,0,0,1-4.506,10.331,31.517,31.517,0,0,1-6.931,7.669,38.213,38.213,0,0,1-8.908,5.244,47.244,47.244,0,0,1-10.41,3,67.592,67.592,0,0,1-11.437.949q-2.108,0-5.086-.132t-5.982-.29q-3-.158-5.666-.29t-4.138-.132v-.211a27.961,27.961,0,0,0,.606-2.741q.29-1.634.5-4.058t.316-5.771q.105-3.347.105-7.827V-78.321q0-4.48-.105-7.88t-.316-5.85q-.211-2.451-.5-4.138a27.179,27.179,0,0,0-.606-2.793Zm88.432,42.429q0-4.48-.132-7.827t-.316-5.771q-.184-2.424-.474-4.058a28,28,0,0,0-.606-2.741v-.211h12.175v.211a18.242,18.242,0,0,0-.712,2.952,43.452,43.452,0,0,0-.448,4.48q1.95-1.634,4.058-3.215a36.122,36.122,0,0,1,4.322-2.793,25.883,25.883,0,0,1,4.506-1.95,14.975,14.975,0,0,1,4.612-.738,20.264,20.264,0,0,1,2.477.132,12.989,12.989,0,0,1,1.9.369,12.886,12.886,0,0,1,1.529.527q.685.29,1.318.553l-2.583,10.067-.9-.211a6.975,6.975,0,0,0-2.372-3.716,7.37,7.37,0,0,0-4.744-1.4,11.125,11.125,0,0,0-3.426.58,20.382,20.382,0,0,0-3.637,1.608,36.171,36.171,0,0,0-3.689,2.372q-1.845,1.344-3.584,2.82-.106,1.529-.105,3.321v17.393q0,4.48.105,7.827t.316,5.771q.211,2.425.474,4.058a24.271,24.271,0,0,0,.58,2.741v.211h-12.175v-.211a28,28,0,0,0,.606-2.741q.29-1.634.474-4.058t.316-5.771q.132-3.347.132-7.827Zm76.731,34.312A32.058,32.058,0,0,1-556.871-24.3a25.528,25.528,0,0,1-8.907-5.4,25.136,25.136,0,0,1-5.982-8.8,30.92,30.92,0,0,1-2.187-11.991,29.871,29.871,0,0,1,2-11.042,27.267,27.267,0,0,1,5.534-8.828,25.583,25.583,0,0,1,8.249-5.85,24.707,24.707,0,0,1,10.2-2.108A26.658,26.658,0,0,1-537.9-76.45a22.758,22.758,0,0,1,8.038,5.429,25.638,25.638,0,0,1,5.376,8.8,36.139,36.139,0,0,1,2.135,11.938q-5.956-.105-11.912-.158t-12.386-.053q-4.585,0-8.934.053t-7.827.158a40.717,40.717,0,0,0,1.713,9.909,23.762,23.762,0,0,0,3.848,7.563,16.63,16.63,0,0,0,5.956,4.823,18.066,18.066,0,0,0,7.932,1.687,22.683,22.683,0,0,0,5.771-.712,20.213,20.213,0,0,0,4.928-1.977,19.118,19.118,0,0,0,3.953-2.978,19.059,19.059,0,0,0,2.952-3.716l.632.316-3.9,9.382a32.673,32.673,0,0,1-6.8,2.5A38.122,38.122,0,0,1-545.908-22.451Zm-7.01-32.151q5.271,0,10.568-.026t9.619-.184a34.57,34.57,0,0,0-1.792-8.222A21.07,21.07,0,0,0-537.9-69.2a14.343,14.343,0,0,0-4.849-3.9,13.811,13.811,0,0,0-6.167-1.37,11.876,11.876,0,0,0-5.613,1.344,13.286,13.286,0,0,0-4.454,3.874,20.6,20.6,0,0,0-3.057,6.193,32.559,32.559,0,0,0-1.37,8.354q2.372.105,5.007.105Zm48.48,15.654a14.537,14.537,0,0,1,1.713-7.221,16.817,16.817,0,0,1,4.559-5.218,24.935,24.935,0,0,1,6.483-3.505A48.74,48.74,0,0,1-484.146-57a66.246,66.246,0,0,1,7.7-1.054q3.795-.29,6.957-.343v-2.688a18.033,18.033,0,0,0-.9-6.009,11.2,11.2,0,0,0-2.53-4.19,10.254,10.254,0,0,0-3.927-2.477,14.9,14.9,0,0,0-5.034-.817,22.108,22.108,0,0,0-3.742.316,21.18,21.18,0,0,0-3.821,1.054,27.82,27.82,0,0,0-4.164,2,43.559,43.559,0,0,0-4.717,3.215l-.527-.316,3.584-7.432a26.55,26.55,0,0,1,3.426-1.291,32.383,32.383,0,0,1,3.426-.817,33.344,33.344,0,0,1,3.558-.448q1.818-.132,3.821-.132a29.367,29.367,0,0,1,9.461,1.344,17.583,17.583,0,0,1,6.43,3.689,14.155,14.155,0,0,1,3.663,5.482,19.224,19.224,0,0,1,1.16,6.72v17.183q0,4.48.132,7.827t.316,5.771q.184,2.425.474,4.058a28,28,0,0,0,.606,2.741v.211h-11.648v-.211a10.92,10.92,0,0,0,.4-1.9q.132-1.054.237-2.53a27.219,27.219,0,0,1-2.609,1.95,20.874,20.874,0,0,1-3.426,1.818,23.427,23.427,0,0,1-4.269,1.318,24.634,24.634,0,0,1-5.139.5q-9.171,0-14.178-4.3T-504.438-38.949Zm34.945-15.338a91,91,0,0,0-9.224.553,25.183,25.183,0,0,0-7.827,2.082,13.271,13.271,0,0,0-5.429,4.506A13.4,13.4,0,0,0-494-39.37q0,6.219,3.11,9.487t8.591,3.268a14.191,14.191,0,0,0,4.612-.712A15.655,15.655,0,0,0-474-29.119a13.354,13.354,0,0,0,2.714-2.372,11.6,11.6,0,0,0,1.687-2.5q.105-2,.105-4.454V-54.286Zm71.039-4.638a22.363,22.363,0,0,0-.712-6.009,11.54,11.54,0,0,0-2.056-4.19,8.4,8.4,0,0,0-3.242-2.477,10.555,10.555,0,0,0-4.217-.817,11.562,11.562,0,0,0-3.531.632,26.606,26.606,0,0,0-4.032,1.713,40.209,40.209,0,0,0-4.164,2.5,39.712,39.712,0,0,0-3.927,3.057q-.105,1.687-.105,3.61v16.893q0,4.48.105,7.827t.316,5.771q.211,2.425.474,4.058a24.258,24.258,0,0,0,.58,2.741v.211h-12.175v-.211a28.015,28.015,0,0,0,.606-2.741q.29-1.634.474-4.058t.316-5.771q.132-3.347.132-7.827V-56.764q0-4.48-.132-7.827t-.316-5.771q-.184-2.424-.474-4.058a28.015,28.015,0,0,0-.606-2.741v-.211h12.175v.211a15.527,15.527,0,0,0-.659,3.083q-.237,1.871-.5,4.717,2.108-1.687,4.533-3.321a43.157,43.157,0,0,1,4.981-2.9,34.071,34.071,0,0,1,5.139-2.056,17.4,17.4,0,0,1,5.113-.791,16.472,16.472,0,0,1,5.323.791,13.567,13.567,0,0,1,4.058,2.161,13.059,13.059,0,0,1,2.925,3.215,15.523,15.523,0,0,1,1.818,3.953q2.161-1.845,4.717-3.663a45.683,45.683,0,0,1,5.271-3.241,34.236,34.236,0,0,1,5.534-2.319,18.133,18.133,0,0,1,5.508-.9A15.612,15.612,0,0,1-362.219-77a13.423,13.423,0,0,1,4.691,3.742,14.853,14.853,0,0,1,2.635,5.3,22.711,22.711,0,0,1,.817,6.035v17.92q0,4.48.105,7.827t.316,5.771q.211,2.425.5,4.058a28.015,28.015,0,0,0,.606,2.741v.211h-12.228v-.211a28.051,28.051,0,0,0,.606-2.741q.29-1.634.5-4.058t.316-5.771q.105-3.347.105-7.827V-58.925q0-6.957-2.794-10.225a9.347,9.347,0,0,0-7.484-3.268,11.941,11.941,0,0,0-3.61.632,25.63,25.63,0,0,0-4.085,1.739,41.516,41.516,0,0,0-4.217,2.556,40.9,40.9,0,0,0-3.953,3.083,7.685,7.685,0,0,1,.105,1.265v19.133q0,4.48.132,7.827t.316,5.771q.185,2.425.474,4.058a28.033,28.033,0,0,0,.606,2.741v.211h-12.175v-.211a24.244,24.244,0,0,0,.58-2.741q.264-1.634.474-4.058t.316-5.771q.105-3.347.105-7.827Z" transform="translate(1512.547 102.197)" fill="#fff"/></svg>